<svg width="43" height="43" viewBox="0 0 43 43" fill="none" xmlns="http://www.w3.org/2000/svg">
<g clip-path="url(#clip0_176_564)">
<circle cx="21.5" cy="21.5" r="21.5" fill="#2563EB"/>
<path d="M25.7539 18.5L21.9688 22.5176C22.3008 22.4401 22.6605 22.4014 23.0479 22.4014C23.8115 22.4014 24.459 22.5674 24.9902 22.8994C25.7539 23.3864 26.1357 24.0947 26.1357 25.0244C26.1357 25.7217 25.9144 26.3525 25.4717 26.917C24.7191 27.8577 23.5902 28.3281 22.085 28.3281C21.4098 28.3281 20.8011 28.2285 20.2588 28.0293C19.2738 27.653 18.7812 27.0498 18.7812 26.2197C18.7812 26.1201 18.7923 26.0205 18.8145 25.9209C18.9251 25.4671 19.2406 25.2402 19.7607 25.2402C20.0153 25.2402 20.2201 25.3011 20.375 25.4229C20.5521 25.5778 20.6628 25.932 20.707 26.4854C20.7292 26.762 20.7568 26.9613 20.79 27.083C20.9118 27.6253 21.2826 27.8965 21.9023 27.8965C23.3854 27.8522 24.1602 26.9723 24.2266 25.2568C24.2266 24.9027 24.1878 24.5762 24.1104 24.2773C23.8558 23.3809 23.3135 22.9326 22.4834 22.9326C22.1182 22.9326 21.7363 23.0156 21.3379 23.1816L20.9395 22.8496L23.8447 19.4961H21.1885C20.945 19.4961 20.7568 19.5072 20.624 19.5293C20.292 19.5846 20.0485 19.8115 19.8936 20.21L19.5947 21.0234H19.1963L19.2295 18.085H25.7539V18.5Z" fill="white"/>
</g>
<defs>
<clipPath id="clip0_176_564">
<rect width="43" height="43" fill="white"/>
</clipPath>
</defs>
</svg>
