<svg width="43" height="43" viewBox="0 0 43 43" fill="none" xmlns="http://www.w3.org/2000/svg">
<g clip-path="url(#clip0_176_558)">
<circle cx="21.5" cy="21.5" r="21.5" fill="#2563EB"/>
<path d="M19.9517 25.5059H23.7534C23.9858 25.5059 24.1685 25.4948 24.3013 25.4727C24.6001 25.4062 24.8215 25.1738 24.9653 24.7754L25.2476 23.9785H25.6128L25.5962 27H18.9722V26.5684C18.9722 26.1257 19.0552 25.7217 19.2212 25.3564C19.4536 24.8473 19.9572 24.3493 20.7319 23.8623C21.5399 23.3532 22.0103 23.0488 22.1431 22.9492C23.0174 22.2741 23.4546 21.3665 23.4546 20.2266C23.4546 20.0052 23.4325 19.7894 23.3882 19.5791C23.2111 18.7712 22.7407 18.3672 21.9771 18.3672C21.6672 18.3672 21.4292 18.4447 21.2632 18.5996C21.075 18.7656 20.9588 19.1419 20.9146 19.7285C20.9035 19.9941 20.8869 20.1878 20.8647 20.3096C20.7541 20.8187 20.4331 21.0732 19.9019 21.0732C19.8022 21.0732 19.7026 21.0566 19.603 21.0234C19.2046 20.8906 19.0054 20.5531 19.0054 20.0107C19.0054 19.5348 19.1769 19.1253 19.52 18.7822C20.0955 18.2067 20.9588 17.9189 22.1099 17.9189C22.6743 17.9189 23.1945 17.9964 23.6704 18.1514C24.8436 18.5277 25.4302 19.2581 25.4302 20.3428C25.4302 20.9847 25.1535 21.5824 24.6001 22.1357C24.1574 22.5674 23.3218 23.0986 22.0933 23.7295C21.6727 23.9398 21.3683 24.0947 21.1802 24.1943C20.3612 24.6592 19.9517 25.0964 19.9517 25.5059Z" fill="white"/>
</g>
<defs>
<clipPath id="clip0_176_558">
<rect width="43" height="43" fill="white"/>
</clipPath>
</defs>
</svg>
