<svg width="60" height="60" viewBox="0 0 60 60" fill="none" xmlns="http://www.w3.org/2000/svg">
<path d="M0 30C0 13.4315 13.4315 0 30 0C46.5685 0 60 13.4315 60 30C60 46.5685 46.5685 60 30 60C13.4315 60 0 46.5685 0 30Z" fill="white"/>
<g clip-path="url(#clip0_176_719)">
<path d="M30 56.087C44.4074 56.087 56.087 44.4075 56.087 30C56.087 15.5926 44.4074 3.91309 30 3.91309C15.5926 3.91309 3.91306 15.5926 3.91306 30C3.91306 44.4075 15.5926 56.087 30 56.087Z" fill="url(#paint0_linear_176_719)"/>
<path fill-rule="evenodd" clip-rule="evenodd" d="M15.7215 29.7247C23.3264 26.4113 28.3975 24.227 30.9348 23.1716C38.1794 20.1583 39.6848 19.6349 40.666 19.6176C40.8818 19.6138 41.3643 19.6673 41.6769 19.9209C41.9408 20.1351 42.0134 20.4243 42.0481 20.6274C42.0829 20.8304 42.1262 21.2929 42.0918 21.6543C41.6992 25.7793 40.0005 35.7895 39.1362 40.4095C38.7706 42.3644 38.0505 43.0199 37.3534 43.0841C35.8385 43.2235 34.6882 42.0829 33.2209 41.1211C30.9249 39.616 29.6278 38.6791 27.3991 37.2105C24.8235 35.5132 26.4932 34.5803 27.961 33.0558C28.3452 32.6568 35.0199 26.5856 35.1491 26.0348C35.1653 25.966 35.1803 25.7092 35.0277 25.5736C34.8752 25.4381 34.6501 25.4844 34.4876 25.5213C34.2573 25.5736 30.5895 27.9979 23.484 32.7943C22.4429 33.5092 21.4999 33.8575 20.655 33.8393C19.7235 33.8191 17.9318 33.3126 16.5999 32.8796C14.9662 32.3486 13.6677 32.0678 13.7808 31.1659C13.8397 30.6962 14.4866 30.2158 15.7215 29.7247Z" fill="white"/>
</g>
<defs>
<linearGradient id="paint0_linear_176_719" x1="47.7391" y1="10.8522" x2="12.5739" y2="49.4609" gradientUnits="userSpaceOnUse">
<stop stop-color="#2AEA7B"/>
<stop offset="0.520833" stop-color="#00C4EE"/>
<stop offset="1" stop-color="#0B94FE"/>
</linearGradient>
<clipPath id="clip0_176_719">
<rect width="52.1739" height="52.1739" fill="white" transform="translate(3.91306 3.91309)"/>
</clipPath>
</defs>
</svg>
